<mxfile host="app.diagrams.net" modified="2021-12-18T09:37:33.622Z" agent="5.0 (Windows NT 10.0; Win64; x64) AppleWebKit/537.36 (KHTML, like Gecko) Chrome/96.0.4664.110 Safari/537.36" etag="Mlr_8j5UKC8CTzI6ds2b" version="16.0.0" type="github">
  <diagram name="Page-1" id="edf60f1a-56cd-e834-aa8a-f176f3a09ee4">
    <mxGraphModel dx="700" dy="1602" grid="1" gridSize="10" guides="1" tooltips="1" connect="1" arrows="1" fold="1" page="1" pageScale="1" pageWidth="1100" pageHeight="850" background="none" math="0" shadow="0">
      <root>
        <mxCell id="0" />
        <mxCell id="1" parent="0" />
        <mxCell id="CdQknOJhZPA8RuenyE7Q-14" value="" style="edgeStyle=orthogonalEdgeStyle;rounded=0;orthogonalLoop=1;jettySize=auto;html=1;" edge="1" parent="1" source="CdQknOJhZPA8RuenyE7Q-1">
          <mxGeometry relative="1" as="geometry">
            <mxPoint x="700" y="-740" as="targetPoint" />
          </mxGeometry>
        </mxCell>
        <mxCell id="CdQknOJhZPA8RuenyE7Q-1" value="Начало" style="ellipse;whiteSpace=wrap;html=1;" vertex="1" parent="1">
          <mxGeometry x="660" y="-800" width="80" height="40" as="geometry" />
        </mxCell>
        <mxCell id="CdQknOJhZPA8RuenyE7Q-15" value="" style="edgeStyle=orthogonalEdgeStyle;rounded=0;orthogonalLoop=1;jettySize=auto;html=1;" edge="1" parent="1" source="CdQknOJhZPA8RuenyE7Q-2" target="CdQknOJhZPA8RuenyE7Q-12">
          <mxGeometry relative="1" as="geometry" />
        </mxCell>
        <mxCell id="CdQknOJhZPA8RuenyE7Q-2" value="&lt;span lang=&quot;EN-US&quot; style=&quot;font-size: 9.5pt ; line-height: 107% ; font-family: &amp;#34;consolas&amp;#34; ; color: black&quot;&gt;summ = 0;&lt;/span&gt;" style="rounded=0;whiteSpace=wrap;html=1;" vertex="1" parent="1">
          <mxGeometry x="662.5" y="-740" width="85" height="40" as="geometry" />
        </mxCell>
        <mxCell id="CdQknOJhZPA8RuenyE7Q-18" value="" style="edgeStyle=orthogonalEdgeStyle;rounded=0;orthogonalLoop=1;jettySize=auto;html=1;" edge="1" parent="1" source="CdQknOJhZPA8RuenyE7Q-6" target="CdQknOJhZPA8RuenyE7Q-8">
          <mxGeometry relative="1" as="geometry" />
        </mxCell>
        <mxCell id="CdQknOJhZPA8RuenyE7Q-6" value="&lt;span lang=&quot;EN-US&quot; style=&quot;font-size: 9.5pt ; line-height: 107% ; font-family: &amp;#34;consolas&amp;#34;&quot;&gt;cin &amp;gt;&amp;gt; digit;&lt;/span&gt;" style="shape=parallelogram;perimeter=parallelogramPerimeter;whiteSpace=wrap;html=1;fixedSize=1;" vertex="1" parent="1">
          <mxGeometry x="750" y="-540" width="150" height="30" as="geometry" />
        </mxCell>
        <mxCell id="CdQknOJhZPA8RuenyE7Q-17" value="" style="edgeStyle=orthogonalEdgeStyle;rounded=0;orthogonalLoop=1;jettySize=auto;html=1;entryX=0.5;entryY=0;entryDx=0;entryDy=0;" edge="1" parent="1" source="CdQknOJhZPA8RuenyE7Q-7" target="CdQknOJhZPA8RuenyE7Q-6">
          <mxGeometry relative="1" as="geometry" />
        </mxCell>
        <mxCell id="CdQknOJhZPA8RuenyE7Q-7" value="&lt;span style=&quot;font-size: 9.5pt ; line-height: 107% ; font-family: &amp;#34;consolas&amp;#34; ; color: black&quot;&gt;cout &amp;lt;&amp;lt; &lt;/span&gt;&lt;span style=&quot;font-size: 9.5pt ; line-height: 107% ; font-family: &amp;#34;consolas&amp;#34; ; color: #a31515&quot;&gt;&quot;Введите любое целое число: &quot;&lt;/span&gt;&lt;span style=&quot;font-size: 9.5pt ; line-height: 107% ; font-family: &amp;#34;consolas&amp;#34; ; color: black&quot;&gt;;&lt;/span&gt;" style="shape=parallelogram;perimeter=parallelogramPerimeter;whiteSpace=wrap;html=1;fixedSize=1;" vertex="1" parent="1">
          <mxGeometry x="747.5" y="-610" width="155" height="40" as="geometry" />
        </mxCell>
        <mxCell id="CdQknOJhZPA8RuenyE7Q-19" value="" style="edgeStyle=orthogonalEdgeStyle;rounded=0;orthogonalLoop=1;jettySize=auto;html=1;" edge="1" parent="1" source="CdQknOJhZPA8RuenyE7Q-8" target="CdQknOJhZPA8RuenyE7Q-9">
          <mxGeometry relative="1" as="geometry">
            <Array as="points">
              <mxPoint x="940" y="-440" />
            </Array>
          </mxGeometry>
        </mxCell>
        <mxCell id="CdQknOJhZPA8RuenyE7Q-23" value="" style="edgeStyle=orthogonalEdgeStyle;rounded=0;orthogonalLoop=1;jettySize=auto;html=1;" edge="1" parent="1" source="CdQknOJhZPA8RuenyE7Q-8" target="CdQknOJhZPA8RuenyE7Q-11">
          <mxGeometry relative="1" as="geometry" />
        </mxCell>
        <mxCell id="CdQknOJhZPA8RuenyE7Q-8" value="&lt;span lang=&quot;EN-US&quot; style=&quot;font-size: 9.5pt ; line-height: 107% ; font-family: &amp;#34;consolas&amp;#34;&quot;&gt;digit == 0&lt;/span&gt;" style="rhombus;whiteSpace=wrap;html=1;" vertex="1" parent="1">
          <mxGeometry x="785" y="-480" width="80" height="80" as="geometry" />
        </mxCell>
        <mxCell id="CdQknOJhZPA8RuenyE7Q-21" value="" style="edgeStyle=orthogonalEdgeStyle;rounded=0;orthogonalLoop=1;jettySize=auto;html=1;" edge="1" parent="1" source="CdQknOJhZPA8RuenyE7Q-9" target="CdQknOJhZPA8RuenyE7Q-13">
          <mxGeometry relative="1" as="geometry" />
        </mxCell>
        <mxCell id="CdQknOJhZPA8RuenyE7Q-9" value="&lt;span lang=&quot;EN-US&quot; style=&quot;font-size: 9.5pt ; line-height: 107% ; font-family: &amp;#34;consolas&amp;#34; ; color: blue&quot;&gt;break&lt;/span&gt;&lt;span lang=&quot;EN-US&quot; style=&quot;font-size: 9.5pt ; line-height: 107% ; font-family: &amp;#34;consolas&amp;#34;&quot;&gt;;&lt;/span&gt;" style="rounded=0;whiteSpace=wrap;html=1;" vertex="1" parent="1">
          <mxGeometry x="910" y="-410" width="70" height="30" as="geometry" />
        </mxCell>
        <mxCell id="CdQknOJhZPA8RuenyE7Q-10" value="Конец" style="ellipse;whiteSpace=wrap;html=1;" vertex="1" parent="1">
          <mxGeometry x="905" y="-240" width="80" height="45" as="geometry" />
        </mxCell>
        <mxCell id="CdQknOJhZPA8RuenyE7Q-25" style="edgeStyle=orthogonalEdgeStyle;rounded=0;orthogonalLoop=1;jettySize=auto;html=1;entryX=0;entryY=0.5;entryDx=0;entryDy=0;" edge="1" parent="1" source="CdQknOJhZPA8RuenyE7Q-11" target="CdQknOJhZPA8RuenyE7Q-12">
          <mxGeometry relative="1" as="geometry">
            <mxPoint x="575" y="-660" as="targetPoint" />
            <Array as="points">
              <mxPoint x="575" y="-660" />
            </Array>
          </mxGeometry>
        </mxCell>
        <mxCell id="CdQknOJhZPA8RuenyE7Q-11" value="&lt;span style=&quot;font-size: 9.5pt ; line-height: 107% ; font-family: &amp;#34;consolas&amp;#34;&quot;&gt;summ += digit;&lt;/span&gt;" style="rounded=0;whiteSpace=wrap;html=1;" vertex="1" parent="1">
          <mxGeometry x="520" y="-460" width="110" height="40" as="geometry" />
        </mxCell>
        <mxCell id="CdQknOJhZPA8RuenyE7Q-16" style="edgeStyle=orthogonalEdgeStyle;rounded=0;orthogonalLoop=1;jettySize=auto;html=1;entryX=0.5;entryY=0;entryDx=0;entryDy=0;" edge="1" parent="1" source="CdQknOJhZPA8RuenyE7Q-12" target="CdQknOJhZPA8RuenyE7Q-7">
          <mxGeometry relative="1" as="geometry">
            <mxPoint x="850" y="-660" as="targetPoint" />
          </mxGeometry>
        </mxCell>
        <mxCell id="CdQknOJhZPA8RuenyE7Q-12" value="&lt;span style=&quot;font-family: &amp;#34;consolas&amp;#34; ; font-size: 12.6667px&quot;&gt;(;;)&lt;/span&gt;" style="shape=hexagon;perimeter=hexagonPerimeter2;whiteSpace=wrap;html=1;fixedSize=1;" vertex="1" parent="1">
          <mxGeometry x="667.5" y="-680" width="75" height="40" as="geometry" />
        </mxCell>
        <mxCell id="CdQknOJhZPA8RuenyE7Q-22" value="" style="edgeStyle=orthogonalEdgeStyle;rounded=0;orthogonalLoop=1;jettySize=auto;html=1;" edge="1" parent="1" source="CdQknOJhZPA8RuenyE7Q-13" target="CdQknOJhZPA8RuenyE7Q-10">
          <mxGeometry relative="1" as="geometry" />
        </mxCell>
        <mxCell id="CdQknOJhZPA8RuenyE7Q-13" value="&lt;p class=&quot;MsoNormal&quot; style=&quot;margin-bottom: 0cm ; line-height: normal&quot;&gt;&lt;span style=&quot;font-size: 9.5pt ; font-family: &amp;#34;consolas&amp;#34;&quot;&gt;cout &amp;lt;&amp;lt; &lt;/span&gt;&lt;span style=&quot;font-size: 9.5pt ; font-family: &amp;#34;consolas&amp;#34; ; color: #a31515&quot;&gt;&quot;Сумма всех введенных чисел равна &quot;&lt;/span&gt;&lt;span style=&quot;font-size: 9.5pt ; font-family: &amp;#34;consolas&amp;#34;&quot;&gt; &amp;lt;&amp;lt; summ &amp;lt;&amp;lt; &lt;/span&gt;&lt;span style=&quot;font-size: 9.5pt ; font-family: &amp;#34;consolas&amp;#34; ; color: #a31515&quot;&gt;&quot;\n\n&quot;&lt;/span&gt;&lt;span style=&quot;font-size: 9.5pt ; font-family: &amp;#34;consolas&amp;#34;&quot;&gt;;&lt;/span&gt;&lt;/p&gt;" style="shape=parallelogram;perimeter=parallelogramPerimeter;whiteSpace=wrap;html=1;fixedSize=1;" vertex="1" parent="1">
          <mxGeometry x="840" y="-340" width="210" height="60" as="geometry" />
        </mxCell>
        <mxCell id="CdQknOJhZPA8RuenyE7Q-26" value="True" style="text;html=1;strokeColor=none;fillColor=none;align=center;verticalAlign=middle;whiteSpace=wrap;rounded=0;" vertex="1" parent="1">
          <mxGeometry x="880" y="-470" width="60" height="30" as="geometry" />
        </mxCell>
        <mxCell id="CdQknOJhZPA8RuenyE7Q-27" value="False" style="text;html=1;strokeColor=none;fillColor=none;align=center;verticalAlign=middle;whiteSpace=wrap;rounded=0;" vertex="1" parent="1">
          <mxGeometry x="667.5" y="-470" width="60" height="30" as="geometry" />
        </mxCell>
      </root>
    </mxGraphModel>
  </diagram>
</mxfile>
